<?xml version="1.0" standalone="no"?>
<!DOCTYPE svg PUBLIC "-//W3C//DTD SVG 20010904//EN"
 "http://www.w3.org/TR/2001/REC-SVG-20010904/DTD/svg10.dtd">
<svg version="1.0" xmlns="http://www.w3.org/2000/svg"
 width="342.93243mm" height="203.20593mm" viewBox="0 0 728.000000 410.000000"
 preserveAspectRatio="xMidYMid meet">
<metadata>
Created by potrace 1.16, written by Peter Selinger 2001-2019
</metadata>
<g transform="translate(0.000000,410.000000) scale(0.100000,-0.100000)"
fill="#000000" stroke="none">
<path d="M0 2050 l0 -2050 2876 0 2875 0 -54 78 c-363 515 -653 935 -669 966
-29 56 -22 141 15 189 15 19 102 88 194 153 559 393 1610 1142 1957 1395 l86
63 0 628 0 628 -3640 0 -3640 0 0 -2050z m5590 1445 c0 -8 -5 -15 -11 -15 -5
0 -7 -5 -3 -12 4 -6 3 -8 -4 -4 -14 8 -120 -58 -145 -90 -10 -13 -26 -24 -35
-24 -20 0 -172 -103 -165 -112 2 -5 -1 -9 -6 -9 -6 -1 -15 -2 -20 -3 -5 0 -13
-5 -18 -10 -5 -5 -2 -6 6 -1 10 6 12 4 7 -4 -5 -7 -15 -10 -23 -7 -8 3 -12 2
-9 -3 5 -8 -7 -18 -117 -95 -58 -41 -70 -46 -84 -34 -14 11 -15 10 -10 -7 6
-16 -5 -28 -56 -63 -146 -100 -357 -247 -426 -295 -81 -57 -143 -97 -211 -134
-68 -38 -141 -89 -134 -95 3 -3 0 -9 -7 -14 -8 -4 -10 -3 -5 4 11 18 -5 14
-27 -5 -17 -16 -19 -16 -16 -2 4 16 134 128 255 221 54 40 231 165 486 341 53
37 102 73 110 80 38 38 425 286 579 371 71 39 89 43 89 21z m267 -267 c18 -13
121 -142 229 -287 201 -270 234 -318 234 -336 -1 -5 -8 4 -17 20 -9 17 -108
153 -220 303 -208 277 -221 291 -288 295 -16 1 -32 5 -35 9 -3 4 -46 -21 -95
-56 -236 -165 -473 -332 -600 -424 -200 -145 -208 -150 -340 -244 -66 -46
-149 -104 -185 -129 -70 -47 -123 -86 -182 -131 -24 -18 -38 -24 -41 -15 -5
16 -29 -29 -38 -73 -6 -32 -7 -33 -8 -7 -1 37 24 91 52 111 12 9 101 71 197
138 496 343 691 481 698 492 9 16 98 76 112 76 6 0 21 10 33 23 34 34 94 77
110 77 7 0 38 23 67 50 29 28 61 50 71 50 10 0 21 5 24 10 4 6 30 24 58 40 64
37 119 39 164 8z m373 -792 c0 -3 -39 -33 -87 -69 -49 -36 -108 -83 -132 -106
-25 -23 -49 -40 -55 -39 -6 2 -27 -9 -46 -23 -19 -14 -172 -124 -340 -244
-168 -120 -352 -252 -410 -293 -174 -126 -231 -164 -234 -161 -3 4 185 139
922 666 86 61 159 110 161 108 2 -2 11 5 20 16 13 15 189 147 199 149 1 0 2
-2 2 -4z"/>
<path d="M7029 2364 c-359 -261 -579 -420 -715 -517 -118 -84 -188 -145 -117
-102 18 11 79 53 135 94 57 41 175 126 263 189 196 142 275 199 298 218 9 8
20 14 22 14 9 0 260 182 263 191 2 5 8 9 13 9 6 0 15 4 22 10 61 49 71 59 66
64 -4 4 -116 -73 -250 -170z"/>
<path d="M7182 2408 c-39 -29 -71 -60 -72 -69 0 -16 103 -168 123 -181 6 -4
19 -2 29 3 16 9 18 25 18 154 0 113 -3 145 -13 145 -7 0 -45 -24 -85 -52z"/>
<path d="M6973 2254 c-40 -30 -73 -60 -73 -67 0 -17 198 -291 213 -295 18 -4
167 107 167 125 0 9 -17 39 -38 67 -21 28 -67 90 -101 139 -37 52 -69 87 -79
86 -9 0 -50 -25 -89 -55z"/>
<path d="M6769 2107 c-49 -36 -74 -60 -73 -73 0 -25 234 -354 251 -354 23 0
163 110 163 128 0 23 -232 346 -251 350 -8 1 -49 -21 -90 -51z"/>
<path d="M6557 1954 c-43 -32 -77 -63 -77 -73 1 -22 158 -241 173 -241 21 0
167 111 167 127 0 21 -159 243 -173 243 -7 0 -47 -25 -90 -56z"/>
<path d="M7208 1909 c-38 -28 -68 -55 -68 -59 0 -11 89 -141 116 -169 l23 -25
0 152 c0 84 -1 152 -2 152 -1 0 -32 -23 -69 -51z"/>
<path d="M6395 1840 c-3 -5 -41 -34 -85 -65 -44 -31 -80 -62 -80 -68 1 -16
111 -167 131 -180 12 -8 37 6 112 62 53 39 97 76 97 81 0 5 -27 48 -61 95 -47
65 -66 85 -84 85 -13 0 -26 -4 -30 -10z"/>
<path d="M7054 1708 c-82 -62 -86 -66 -72 -92 22 -41 118 -166 128 -166 22 0
160 113 160 131 0 26 -111 179 -131 179 -9 0 -47 -23 -85 -52z"/>
<path d="M6757 1664 c-42 -30 -77 -61 -77 -67 0 -18 119 -181 134 -185 21 -5
166 107 166 128 0 26 -112 180 -130 180 -9 0 -50 -25 -93 -56z"/>
<path d="M6488 1557 c-60 -43 -88 -68 -88 -82 1 -27 112 -180 132 -180 21 0
187 121 195 141 3 9 -8 36 -28 62 -18 26 -44 64 -58 85 -15 23 -32 37 -45 37
-12 -1 -60 -29 -108 -63z"/>
<path d="M7205 1474 c-33 -26 -61 -54 -63 -64 -3 -19 105 -181 125 -187 9 -4
12 32 12 146 0 83 -3 151 -7 151 -4 -1 -34 -21 -67 -46z"/>
<path d="M6922 1438 c-47 -35 -71 -60 -71 -73 -1 -25 109 -179 129 -182 21 -4
165 110 164 129 -2 28 -114 178 -133 178 -9 0 -49 -24 -89 -52z"/>
<path d="M6650 1326 c-47 -34 -86 -69 -88 -77 -4 -19 110 -183 130 -187 23 -4
198 129 198 151 0 10 -26 54 -57 98 -40 56 -62 79 -77 78 -12 0 -59 -29 -106
-63z"/>
<path d="M7088 1212 c-51 -38 -77 -64 -77 -77 0 -28 111 -180 132 -180 9 0 43
20 77 44 59 43 60 45 60 91 0 39 -7 57 -42 106 -39 56 -56 74 -68 74 -3 -1
-40 -26 -82 -58z"/>
<path d="M6825 1104 c-95 -69 -111 -86 -99 -107 42 -70 161 -227 173 -227 18
0 201 137 201 151 0 20 -164 249 -178 249 -4 0 -47 -30 -97 -66z"/>
<path d="M7223 962 c-29 -21 -53 -44 -53 -53 0 -10 24 -52 53 -94 l52 -77 3
66 c2 36 2 95 0 130 l-3 64 -52 -36z"/>
<path d="M7022 813 c-63 -47 -91 -74 -92 -89 0 -11 29 -63 65 -115 163 -235
203 -294 243 -356 l42 -67 0 247 0 248 -70 100 c-39 54 -77 99 -84 99 -7 0
-53 -30 -104 -67z"/>
<path d="M6700 509 c-52 -39 -171 -127 -265 -196 -93 -69 -174 -130 -180 -136
-20 -20 21 8 135 92 315 233 411 301 424 301 15 0 57 -54 171 -220 123 -179
171 -252 192 -292 11 -21 23 -35 27 -31 3 3 6 -1 6 -10 0 -10 8 -17 20 -17 11
0 20 3 20 8 0 4 -30 48 -67 98 -38 50 -120 164 -183 254 -148 208 -157 220
-183 220 -12 -1 -65 -33 -117 -71z"/>
</g>
</svg>
